<svg xmlns="http://www.w3.org/2000/svg" viewBox="0 0 32 32"><path fill="#231f20" d="M8.56 24.3a2.37 2.37 0 0 0-1.89 1 2.25 2.25 0 0 0-.45 1.39A2.35 2.35 0 1 0 8.56 24.3zM8.56 7.7a2.35 2.35 0 0 0 2.35-2.35 2.3 2.3 0 0 0-.17-.85 2.34 2.34 0 0 0-4.52.85 2.24 2.24 0 0 0 .46 1.4A2.36 2.36 0 0 0 8.56 7.7zM14.48 13.66A2.34 2.34 0 1 0 16.82 16 2.35 2.35 0 0 0 14.48 13.66z"/><path fill="#231f20" d="M21.94,17.24a4.68,4.68,0,0,1,.17-.53,2,2,0,0,1,.14-.3c.08-.15.15-.3.24-.44s.12-.19.18-.28.21-.26.32-.38l.23-.23c.13-.12.26-.22.39-.32l.25-.19.49-.26.24-.12a4.15,4.15,0,0,1,.78-.24h0a11.2,11.2,0,0,0-10.92-9A13.37,13.37,0,0,0,13.06,5c0,.13,0,.25,0,.38A4.54,4.54,0,0,1,8.56,9.88a4.48,4.48,0,0,1-.65-.06l-.19,0-.49-.12-.15,0c-.19-.07-.39-.16-.59-.25a.41.41,0,0,0-.11-.07A4.08,4.08,0,0,1,5.94,9L5.86,9A11.1,11.1,0,0,0,5.86,23S5.92,23,6,23l.42-.27a.57.57,0,0,0,.13-.08l.58-.25.15,0,.49-.12.19,0a4.48,4.48,0,0,1,.65-.06,4.54,4.54,0,0,1,4.53,4.53c0,.13,0,.26,0,.38a11.16,11.16,0,0,0,1.42.08,11,11,0,0,0,9.28-5l-.06,0-.13-.1c-.13-.1-.25-.21-.37-.32a.62.62,0,0,1-.14-.14l-.32-.36-.1-.13a3.77,3.77,0,0,1-.34-.54,1.17,1.17,0,0,0-.05-.11,4.89,4.89,0,0,1-.2-.48,1.52,1.52,0,0,1-.06-.2,2.46,2.46,0,0,1-.11-.45c0-.07,0-.14-.05-.2a4.91,4.91,0,0,1,0-.67,4.19,4.19,0,0,1,.09-.86C21.89,17.42,21.92,17.33,21.94,17.24Zm-7.46,3.28A4.52,4.52,0,1,1,19,16,4.52,4.52,0,0,1,14.48,20.52Z"/><path fill="#231f20" d="M26.53,16H26.3A2.36,2.36,0,0,0,24,18.36a2.13,2.13,0,0,0,.12.72h0a2.2,2.2,0,0,0,.32.63v0a2,2,0,0,0,.48.48l0,0a2.35,2.35,0,0,0,.61.32l0,0h.06a2.28,2.28,0,0,0,.66.1A2.35,2.35,0,0,0,26.53,16Z"/></svg>